<?xml version="1.0" encoding="UTF-8" standalone="no"?>
<!-- Created with Inkscape (http://www.inkscape.org/) -->

<svg
   xmlns:dc="http://purl.org/dc/elements/1.1/"
   xmlns:cc="http://creativecommons.org/ns#"
   xmlns:rdf="http://www.w3.org/1999/02/22-rdf-syntax-ns#"
   xmlns:svg="http://www.w3.org/2000/svg"
   xmlns="http://www.w3.org/2000/svg"
   xmlns:sodipodi="http://sodipodi.sourceforge.net/DTD/sodipodi-0.dtd"
   xmlns:inkscape="http://www.inkscape.org/namespaces/inkscape"
   width="165mm"
   height="217mm"
   viewBox="0 0 165 217"
   version="1.1"
   id="svg8"
   sodipodi:docname="LOGODGMU.svg"
   inkscape:version="0.92.4 (5da689c313, 2019-01-14)">
  <defs
     id="defs2">
    <inkscape:path-effect
       effect="simplify"
       id="path-effect346"
       is_visible="true"
       steps="1"
       threshold="0.00108696"
       smooth_angles="360"
       helper_size="0"
       simplify_individual_paths="false"
       simplify_just_coalesce="false"
       simplifyindividualpaths="false"
       simplifyJustCoalesce="false" />
    <inkscape:perspective
       sodipodi:type="inkscape:persp3d"
       inkscape:vp_x="0 : 148.50002 : 1"
       inkscape:vp_y="0 : 999.9999 : 0"
       inkscape:vp_z="210.00003 : 148.50002 : 1"
       inkscape:persp3d-origin="105 : 98.999987 : 1"
       id="perspective308" />
  </defs>
  <sodipodi:namedview
     id="base"
     pagecolor="#ffffff"
     bordercolor="#666666"
     borderopacity="1.0"
     inkscape:pageopacity="0.0"
     inkscape:pageshadow="2"
     inkscape:zoom="0.7"
     inkscape:cx="94.754925"
     inkscape:cy="389.02315"
     inkscape:document-units="mm"
     inkscape:current-layer="layer1"
     showgrid="false"
     inkscape:snap-text-baseline="true"
     inkscape:snap-to-guides="true"
     inkscape:window-width="1600"
     inkscape:window-height="837"
     inkscape:window-x="1592"
     inkscape:window-y="-8"
     inkscape:window-maximized="1"
     inkscape:snap-nodes="false"
     scale-x="1"
     inkscape:lockguides="true"
     inkscape:pagecheckerboard="false"
     showguides="false" />
  <metadata
     id="metadata5">
    <rdf:RDF>
      <cc:Work
         rdf:about="">
        <dc:format>image/svg+xml</dc:format>
        <dc:type
           rdf:resource="http://purl.org/dc/dcmitype/StillImage" />
        <dc:title></dc:title>
      </cc:Work>
    </rdf:RDF>
  </metadata>
  <g
     inkscape:label="Capa 1"
     inkscape:groupmode="layer"
     id="layer1"
     transform="translate(0,-80)">
    <text
       xml:space="preserve"
       style="font-style:normal;font-weight:normal;font-size:50.79999924px;line-height:1.25;font-family:sans-serif;letter-spacing:0px;word-spacing:0px;fill:#000000;fill-opacity:1;stroke:none;stroke-width:0.26458332"
       x="27.261492"
       y="76.235367"
       id="text12"><tspan
         sodipodi:role="line"
         id="tspan10"
         x="27.261492"
         y="122.58175"
         style="stroke-width:0.26458332" /><tspan
         sodipodi:role="line"
         x="27.261492"
         y="186.08174"
         style="stroke-width:0.26458332"
         id="tspan218" /></text>
    <text
       xml:space="preserve"
       style="font-style:normal;font-weight:normal;font-size:50.79999924px;line-height:1.25;font-family:sans-serif;letter-spacing:0px;word-spacing:0px;fill:#000000;fill-opacity:1;stroke:none;stroke-width:0.26458332"
       x="33.141422"
       y="131.82744"
       id="text16"><tspan
         sodipodi:role="line"
         id="tspan14"
         x="33.141422"
         y="178.17381"
         style="stroke-width:0.26458332"></tspan></text>
    <text
       xml:space="preserve"
       style="font-style:normal;font-weight:normal;font-size:50.79999924px;line-height:1.25;font-family:sans-serif;letter-spacing:0px;word-spacing:0px;fill:#000000;fill-opacity:1;stroke:none;stroke-width:0.26458332"
       x="33.141422"
       y="120.60211"
       id="text20"><tspan
         sodipodi:role="line"
         id="tspan18"
         x="33.141422"
         y="166.94849"
         style="stroke-width:0.26458332" /></text>
    <text
       xml:space="preserve"
       style="font-style:normal;font-weight:normal;font-size:50.79999924px;line-height:1.25;font-family:sans-serif;letter-spacing:0px;word-spacing:0px;fill:#000000;fill-opacity:1;stroke:none;stroke-width:0.26458332"
       x="31.537804"
       y="110.44586"
       id="text24"><tspan
         sodipodi:role="line"
         id="tspan22"
         x="31.537804"
         y="156.79224"
         style="stroke-width:0.26458332" /></text>
    <text
       xml:space="preserve"
       style="font-style:normal;font-weight:normal;font-size:50.79999924px;line-height:1.25;font-family:sans-serif;letter-spacing:0px;word-spacing:0px;fill:#000000;fill-opacity:1;stroke:none;stroke-width:0.26458332"
       x="39.555889"
       y="161.76163"
       id="text32"><tspan
         sodipodi:role="line"
         id="tspan30"
         x="39.555889"
         y="208.108"
         style="stroke-width:0.26458332"></tspan></text>
    <text
       xml:space="preserve"
       style="font-style:normal;font-weight:normal;font-size:50.79999924px;line-height:1.25;font-family:sans-serif;text-align:start;letter-spacing:0px;word-spacing:0px;text-anchor:start;fill:#000000;fill-opacity:1;stroke:none;stroke-width:0.26458332"
       x="11.659344"
       y="124.34388"
       id="text222"><tspan
         sodipodi:role="line"
         x="11.659344"
         y="170.69026"
         style="text-align:start;text-anchor:start;stroke-width:0.26458332"
         id="tspan232" /></text>
    <text
       xml:space="preserve"
       style="font-style:normal;font-weight:normal;font-size:50.79999924px;line-height:12.25;font-family:sans-serif;letter-spacing:0px;word-spacing:0px;writing-mode:lr-tb;fill:#000000;fill-opacity:1;stroke:none;stroke-width:0.26458332"
       x="95.25"
       y="82.309517"
       id="text252"><tspan
         sodipodi:role="line"
         id="tspan250"
         x="95.25"
         y="408.05588"
         style="stroke-width:0.26458332" /></text>
    <text
       xml:space="preserve"
       style="font-style:normal;font-weight:normal;font-size:50.79999924px;line-height:12.25;font-family:sans-serif;letter-spacing:0px;word-spacing:0px;writing-mode:lr-tb;fill:#000000;fill-opacity:1;stroke:none;stroke-width:0.26458332"
       x="58.964287"
       y="132.95833"
       id="text256"><tspan
         sodipodi:role="line"
         id="tspan254"
         x="58.964287"
         y="458.70471"
         style="stroke-width:0.26458332" /></text>
    <text
       xml:space="preserve"
       style="font-style:normal;font-weight:normal;font-size:50.79999924px;line-height:12.25;font-family:sans-serif;letter-spacing:0px;word-spacing:0px;writing-mode:lr-tb;fill:#000000;fill-opacity:1;stroke:none;stroke-width:0.26458332"
       x="48.380955"
       y="132.20238"
       id="text260"><tspan
         sodipodi:role="line"
         id="tspan258"
         x="48.380955"
         y="132.20238"
         style="stroke-width:0.26458332">D</tspan></text>
    <text
       xml:space="preserve"
       style="font-style:normal;font-weight:normal;font-size:50.79999924px;line-height:12.25;font-family:sans-serif;letter-spacing:0px;word-spacing:0px;writing-mode:lr-tb;fill:#000000;fill-opacity:1;stroke:none;stroke-width:0.26458332"
       x="45.357143"
       y="178.31548"
       id="text264"><tspan
         sodipodi:role="line"
         id="tspan262"
         x="45.357143"
         y="504.06186"
         style="stroke-width:0.26458332" /></text>
    <text
       xml:space="preserve"
       style="font-style:normal;font-weight:normal;font-size:50.79999924px;line-height:12.25;font-family:sans-serif;letter-spacing:0px;word-spacing:0px;writing-mode:lr-tb;fill:#000000;fill-opacity:1;stroke:none;stroke-width:0.26458332"
       x="49.136906"
       y="178.31548"
       id="text268"><tspan
         sodipodi:role="line"
         id="tspan266"
         x="49.136906"
         y="178.31548"
         style="stroke-width:0.26458332">G</tspan></text>
    <text
       xml:space="preserve"
       style="font-style:normal;font-weight:normal;font-size:50.79999924px;line-height:12.25;font-family:sans-serif;letter-spacing:0px;word-spacing:0px;writing-mode:lr-tb;fill:#000000;fill-opacity:1;stroke:none;stroke-width:0.26458332"
       x="52.160713"
       y="223.67261"
       id="text274"><tspan
         sodipodi:role="line"
         id="tspan272"
         x="52.160713"
         y="223.67261"
         style="stroke-width:0.26458332">MU</tspan></text>
    <g
       sodipodi:type="inkscape:box3d"
       id="g310"
       inkscape:perspectiveID="#perspective308"
       inkscape:corner0="0.20780557 : 0.10935828 : 0 : 1"
       inkscape:corner7="-0.0078739929 : 0.011669294 : 0.25 : 1">
      <path
         sodipodi:type="inkscape:box3dside"
         id="path312"
         style="fill:#353564;fill-rule:evenodd;stroke:none;stroke-linejoin:round"
         inkscape:box3dsidetype="6"
         d="m 86.934525,99.940486 v 80.881374 l 21.104585,-5.37141 v -67.01098 z"
         points="86.934525,180.82186 108.03911,175.45045 108.03911,108.43947 86.934525,99.940486 " />
      <path
         sodipodi:type="inkscape:box3dside"
         id="path320"
         style="fill:#afafde;fill-rule:evenodd;stroke:none;stroke-linejoin:round"
         inkscape:box3dsidetype="13"
         d="m 86.934525,180.82186 18.898805,6.80911 20.96541,-7.67455 -18.75963,-4.50597 z"
         points="105.83333,187.63097 126.79874,179.95642 108.03911,175.45045 86.934525,180.82186 " />
      <path
         sodipodi:type="inkscape:box3dside"
         id="path322"
         style="fill:#e9e9ff;fill-rule:evenodd;stroke:none;stroke-linejoin:round"
         inkscape:box3dsidetype="11"
         d="m 108.03911,108.43947 18.75963,-7.12964 v 78.64659 l -18.75963,-4.50597 z"
         points="126.79874,101.30983 126.79874,179.95642 108.03911,175.45045 108.03911,108.43947 " />
      <path
         sodipodi:type="inkscape:box3dside"
         id="path314"
         style="fill:#4d4d9f;fill-rule:evenodd;stroke:none;stroke-linejoin:round"
         inkscape:box3dsidetype="5"
         d="m 86.934525,99.940486 18.898805,-10.773803 20.96541,12.143147 -18.75963,7.12964 z"
         points="105.83333,89.166683 126.79874,101.30983 108.03911,108.43947 86.934525,99.940486 " />
      <path
         sodipodi:type="inkscape:box3dside"
         id="path318"
         style="fill:#d7d7ff;fill-rule:evenodd;stroke:none;stroke-linejoin:round"
         inkscape:box3dsidetype="14"
         d="m 105.83333,89.166683 v 98.464287 l 20.96541,-7.67455 v -78.64659 z"
         points="105.83333,187.63097 126.79874,179.95642 126.79874,101.30983 105.83333,89.166683 " />
      <path
         sodipodi:type="inkscape:box3dside"
         id="path316"
         style="fill:#8686bf;fill-rule:evenodd;stroke:none;stroke-linejoin:round"
         inkscape:box3dsidetype="3"
         d="M 86.934525,99.940486 105.83333,89.166683 v 98.464287 l -18.898805,-6.80911 z"
         points="105.83333,89.166683 105.83333,187.63097 86.934525,180.82186 86.934525,99.940486 " />
    </g>
    <path
       style="fill:none;stroke:#000000;stroke-width:0.26458332px;stroke-linecap:butt;stroke-linejoin:miter;stroke-opacity:1"
       d="m 49.136905,94.404753 c -0.503969,0.503968 -1.007937,1.007935 -1.511906,1.511903"
       id="path344"
       inkscape:connector-curvature="0"
       inkscape:path-effect="#path-effect346"
       inkscape:original-d="m 49.136905,94.404753 -1.511906,1.511903" />
    <path
       id="path366"
       transform="matrix(0.26458333,0,0,0.26458333,0,80)"
       style="stroke-width:0.99999994"
       d="m 147.36719,54.324219 c 0.26853,8.7074 0.15239,17.420923 0.0957,26.130859 -0.047,6.411364 -0.0687,12.822822 -0.0801,19.234375 -0.39122,5.913827 0.31326,11.678497 1.29297,17.490237 1.18558,6.68534 1.38327,13.47744 1.5332,20.24804 -0.006,7.13534 -0.0337,14.21872 0.90625,21.29883 1.02844,6.27629 1.56533,12.60593 1.83594,18.95508 0.26461,7.09085 0.21604,14.18884 0.19336,21.2832 -0.0189,6.64033 -0.0207,13.27964 0.0156,19.91993 0.007,6.80519 -0.0296,13.61086 -0.0488,20.41601 -0.0155,6.41514 0.0258,12.83088 0.0156,19.2461 -0.007,6.75889 -0.007,13.51657 0.0312,20.27539 0.0232,8.52226 0.0933,17.0441 0.0566,25.5664 -0.0449,6.95705 -0.0878,13.91389 -0.10937,20.8711 0.18049,7.20151 0.10806,14.34583 -0.72461,21.50195 -0.58119,7.8336 -1.9473,15.52183 -3.17383,23.26562 -1.77052,6.76717 -3.25743,13.57436 -4.07422,20.52344 -0.64986,6.30966 -0.58443,12.65823 -0.60937,18.99219 0.75941,6.83584 1.82142,13.6187 2.36718,20.48047 0.45911,6.62593 0.51708,13.26938 0.53711,19.9082 0.23874,7.98421 -0.26209,15.97643 0.38868,23.94141 1.0265,7.45217 1.73941,14.93081 2.16797,22.43945 0.31313,7.30103 0.3336,14.60974 0.32226,21.91602 -0.0231,6.18595 -0.0496,12.3726 -0.0625,18.55859 0.25288,5.62299 -0.50815,11.20911 -2.05859,16.60937 -0.90389,3.16874 -2.28914,6.16128 -3.78321,9.09766 -2.01092,0.0111 -4.02229,0.0122 -6.0332,0.0293 -5.78728,0.0957 -11.64363,0.15832 -17.29297,1.56445 -5.59171,1.89842 -10.28776,5.55963 -6.15039,11.79688 13.36785,8.35162 39.30611,2.22999 57.65234,1.25585 5.11331,-1.06083 9.36511,-3.01953 11.82618,-7.91992 0.0113,-0.0213 0.0219,-0.0431 0.0332,-0.0644 14.83471,-0.0781 29.66991,-0.2824 44.50195,0.0156 12.47086,0.25058 -24.94852,-0.0488 -37.41992,0.17382 -1.4756,0.0263 2.93885,0.27769 4.4082,0.41602 7.79353,0.78633 15.47445,2.4483 23.14649,3.99609 6.38765,1.5676 12.81991,2.89248 19.19726,4.50196 6.10193,1.59545 12.38416,2.01673 18.65821,2.23632 21.50779,0.33978 43.02154,0.17767 64.53125,0.12891 7.95904,-0.0113 15.91791,-0.0205 23.87695,-0.0215 8.09736,0.004 16.19365,-8.9e-4 24.29102,-0.004 -74.71521,0.0151 -28.48696,-0.0118 -11.20703,-0.0156 26.67953,-0.33248 53.51234,1.61485 80.01953,-1.89648 14.17625,-1.67928 28.00526,-5.36458 41.90625,-8.48828 10.0411,-2.14405 20.31289,-3.41753 30.18554,-6.28906 6.79049,-1.4281 12.47493,-5.44493 19.03907,-7.51758 2.91133,-1.80223 6.21103,-2.52701 9.11718,-4.2832 l -42.22851,-4.67383 c -3.00696,1.21323 -5.92993,2.6111 -8.94532,3.80078 -6.21271,2.5807 -12.1292,5.89741 -18.83007,7.14258 -9.84991,2.30131 -19.80595,4.08084 -29.68946,6.2207 -13.8291,3.21048 -27.67693,6.54788 -41.82226,8.04687 -15.14858,1.56496 -43.89246,0.86587 20.67578,1.38672 2.15168,0.0151 -4.30332,-0.006 -6.45508,-0.008 -1.98489,-7.6e-4 -3.96823,-0.003 -5.95312,-0.004 -1.85983,-8.6e-4 -3.72029,3.8e-4 -5.58008,0 -23.95792,-0.008 -47.91513,-0.0345 -71.87305,-0.0156 -8.10803,-0.003 -16.2162,-0.006 -24.32422,0.002 -0.80793,3.9e-4 -1.6159,0.002 -2.42383,0.002 -0.85298,-0.006 -1.7056,-0.0119 -2.55859,-0.0195 -6.16602,-0.0917 -12.36728,-0.17764 -18.43945,-1.38671 -6.441,-1.40871 -12.76036,-3.22358 -19.2461,-4.44532 -7.58053,-2.21854 -15.63968,-3.09721 -23.38671,-4.54492 -23.27427,-2.79893 35.39492,4.09857 -49.98243,-1.01758 0.012,-0.0275 0.0251,-0.0545 0.0371,-0.082 -0.44206,-0.001 -0.88411,-0.002 -1.32617,-0.004 -2.40893,-0.17081 -1.36417,-0.23933 1.43945,-0.25391 1.08949,-2.52322 2.04148,-5.10299 2.76758,-7.74609 1.47763,-5.79738 2.38702,-11.72473 2.08008,-17.72461 -0.002,-6.19008 -0.006,-12.38032 -0.0371,-18.57032 -0.0414,-7.37733 -0.0337,-14.75716 -0.35742,-22.1289 -0.3666,-7.55906 -1.17079,-15.08527 -2.20313,-22.58203 -0.71766,-7.83678 -0.19555,-15.73755 -0.28906,-23.59961 -0.0502,-6.74457 -0.0414,-13.49877 -0.54492,-20.22852 -0.55756,-6.73716 -1.45853,-13.42479 -2.35938,-20.12109 0.0244,-6.17533 0.0671,-12.36229 0.64454,-18.51563 0.80045,-6.88029 2.3272,-13.60559 3.95117,-20.33398 1.30494,-7.79596 2.45715,-15.57968 3.13476,-23.46094 0.84704,-7.32094 1.05766,-14.61847 0.90039,-21.98828 -0.0215,-6.9572 -0.0625,-13.914 -0.10742,-20.87109 -0.0367,-8.52231 0.0316,-17.04418 0.0547,-25.56641 0.0382,-6.75882 0.0404,-13.51845 0.0332,-20.27734 -0.0102,-6.41515 0.0292,-12.82908 0.0137,-19.24414 -0.0187,-6.8044 -0.053,-13.6096 -0.0391,-20.41407 0.0434,-6.64157 0.0559,-13.28214 0.0469,-19.92383 -0.0279,-7.15045 -0.0737,-14.30181 -0.21094,-21.45117 -0.24275,-6.49066 -0.70309,-12.96274 -1.84961,-19.36719 -0.99807,-6.92148 -0.88226,-13.83672 -0.94727,-20.82031 -0.18503,-6.9623 -0.24063,-13.96975 -1.40429,-20.85351 -0.94408,-5.5832 -1.70737,-11.0914 -1.29492,-16.781253 -0.0112,-6.411515 -0.0329,-12.823011 -0.0801,-19.234375 -0.0568,-8.708646 -0.17272,-17.420852 0.0957,-26.126953 z m 40.41015,507.931641 c -0.0372,0.0862 -0.0757,0.17172 -0.11328,0.25781 3.29691,0.011 6.59375,0.0217 9.89063,0.0293 5.71772,0.0113 11.43461,0.0118 17.15234,0.0156 0.95221,8e-5 1.90522,-7.5e-4 2.85742,0 2.37233,0.002 9.48951,0.0137 7.11719,0.0137 -8.74392,0.003 -29.45273,-0.35516 -36.9043,-0.31641 z m -3.32812,6.87695 c 1.35762,0.004 1.29951,0.006 -0.004,0.006 0.001,-0.002 0.003,-0.004 0.004,-0.006 z m 124.23047,4.90039 c 4.31186,2.1e-4 -0.21409,-5.5e-4 4.99609,0 1.26603,0 -2.5328,0.002 -3.79883,0.002 -0.42929,0 -0.79278,-0.002 -1.19726,-0.002 z" />
    <text
       xml:space="preserve"
       style="font-style:normal;font-weight:normal;font-size:50.79999924px;line-height:12.25;font-family:sans-serif;letter-spacing:0px;word-spacing:0px;writing-mode:lr-tb;fill:#000000;fill-opacity:1;stroke:none;stroke-width:0.26458332"
       x="56.696426"
       y="286.41666"
       id="text410"><tspan
         sodipodi:role="line"
         id="tspan408"
         x="56.696426"
         y="612.16302"
         style="stroke-width:0.26458332" /></text>
    <text
       xml:space="preserve"
       style="font-style:normal;font-weight:normal;font-size:50.79999924px;line-height:12.25;font-family:sans-serif;letter-spacing:0px;word-spacing:0px;writing-mode:lr-tb;fill:#000000;fill-opacity:1;stroke:none;stroke-width:0.26458332"
       x="21.544643"
       y="283.39285"
       id="text414"><tspan
         sodipodi:role="line"
         id="tspan412"
         x="21.544643"
         y="609.13922"
         style="stroke-width:0.26458332"></tspan></text>
    <text
       xml:space="preserve"
       style="font-style:normal;font-weight:normal;font-size:50.79999924px;line-height:12.25;font-family:sans-serif;letter-spacing:0px;word-spacing:0px;writing-mode:lr-tb;fill:#000000;fill-opacity:1;stroke:none;stroke-width:0.26458332"
       x="13.985119"
       y="287.5506"
       id="text422"><tspan
         sodipodi:role="line"
         id="tspan420"
         x="13.985119"
         y="613.297"
         style="stroke-width:0.26458332" /></text>
    <text
       xml:space="preserve"
       style="font-style:normal;font-weight:normal;font-size:25.4px;line-height:12.25;font-family:sans-serif;letter-spacing:0px;word-spacing:0px;writing-mode:lr-tb;fill:#000000;fill-opacity:1;stroke:none;stroke-width:0.26458332;"
       x="3.0238092"
       y="288.30655"
       id="text426"><tspan
         sodipodi:role="line"
         id="tspan424"
         x="3.0238092"
         y="614.05292"
         style="stroke-width:0.26458332;font-size:25.4px;" /></text>
    <text
       xml:space="preserve"
       style="font-style:normal;font-weight:normal;font-size:25.39999962px;line-height:12.25;font-family:sans-serif;letter-spacing:0px;word-spacing:0px;writing-mode:lr-tb;fill:#000000;fill-opacity:1;stroke:none;stroke-width:0.26458332"
       x="22.678572"
       y="268.2738"
       id="text430"><tspan
         sodipodi:role="line"
         id="tspan428"
         x="22.678572"
         y="268.2738"
         style="stroke-width:0.26458332">  D. WEB</tspan></text>
  </g>
</svg>
